<?xml version="1.0" encoding="UTF-8"?> <svg xmlns="http://www.w3.org/2000/svg" width="1318" height="200" viewBox="0 0 1318 200" fill="none"> <rect x="1244.78" y="200" width="200" height="73.2222" rx="36.6111" transform="rotate(-90 1244.78 200)" fill="#E6E51E"></rect> <rect x="1171.55" y="200" width="200" height="73.2222" rx="36.6111" transform="rotate(-90 1171.55 200)" fill="#E6E51E"></rect> <rect x="1098.33" y="200" width="200" height="73.2222" rx="36.6111" transform="rotate(-90 1098.33 200)" fill="#E6E51E"></rect> <rect x="1025.11" y="200" width="200" height="73.2222" rx="36.6111" transform="rotate(-90 1025.11 200)" fill="#E6E51E"></rect> <rect x="951.891" y="200" width="200" height="73.2222" rx="36.6111" transform="rotate(-90 951.891 200)" fill="#E6E51E"></rect> <rect x="878.668" y="200" width="200" height="73.2222" rx="36.6111" transform="rotate(-90 878.668 200)" fill="#E6E51E"></rect> <rect x="805.445" y="200" width="200" height="73.2222" rx="36.6111" transform="rotate(-90 805.445 200)" fill="#E6E51E"></rect> <rect x="732.223" y="200" width="200" height="73.2222" rx="36.6111" transform="rotate(-90 732.223 200)" fill="#E6E51E"></rect> <rect x="659" y="200" width="200" height="73.2222" rx="36.6111" transform="rotate(-90 659 200)" fill="#E6E51E"></rect> <rect x="585.777" y="200" width="200" height="73.2222" rx="36.6111" transform="rotate(-90 585.777 200)" fill="#E6E51E"></rect> <rect x="512.555" y="200" width="200" height="73.2222" rx="36.6111" transform="rotate(-90 512.555 200)" fill="#E6E51E"></rect> <rect x="439.332" y="200" width="200" height="73.2222" rx="36.6111" transform="rotate(-90 439.332 200)" fill="#E6E51E"></rect> <rect x="366.109" y="200" width="200" height="73.2222" rx="36.6111" transform="rotate(-90 366.109 200)" fill="#E6E51E"></rect> <rect x="292.891" y="200" width="200" height="73.2222" rx="36.6111" transform="rotate(-90 292.891 200)" fill="#E6E51E"></rect> <rect x="219.668" y="200" width="200" height="73.2222" rx="36.6111" transform="rotate(-90 219.668 200)" fill="#E6E51E"></rect> <rect x="146.445" y="200" width="200" height="73.2222" rx="36.6111" transform="rotate(-90 146.445 200)" fill="#E6E51E"></rect> <rect x="73.2227" y="200" width="200" height="73.2222" rx="36.6111" transform="rotate(-90 73.2227 200)" fill="#E6E51E"></rect> <rect y="200" width="200" height="73.2222" rx="36.6111" transform="rotate(-90 0 200)" fill="#E6E51E"></rect> </svg> 