<?xml version="1.0" encoding="UTF-8"?> <svg xmlns="http://www.w3.org/2000/svg" width="1320" height="370" viewBox="0 0 1320 370" fill="none"> <rect y="0.00012207" width="95.2888" height="370" rx="47.6444" fill="#E6E51E"></rect> <rect x="95.2891" y="0.00012207" width="94.2857" height="370" rx="47.1429" fill="#E6E51E"></rect> <rect x="189.574" y="0.00012207" width="95.2888" height="370" rx="47.6444" fill="#E6E51E"></rect> <rect x="284.863" y="0.00012207" width="93.2827" height="370" rx="46.6413" fill="#E6E51E"></rect> <rect x="378.145" y="0.00012207" width="94.2857" height="370" rx="47.1429" fill="#E6E51E"></rect> <rect x="472.43" y="0.00012207" width="94.2857" height="370" rx="47.1429" fill="#E6E51E"></rect> <rect x="566.719" y="0.00012207" width="94.2857" height="370" rx="47.1429" fill="#E6E51E"></rect> <rect x="661.004" y="0.00012207" width="94.2857" height="370" rx="47.1429" fill="#E6E51E"></rect> <rect x="755.289" y="0.00012207" width="94.2857" height="370" rx="47.1429" fill="#E6E51E"></rect> <rect x="849.574" y="0.00012207" width="93.2827" height="370" rx="46.6413" fill="#E6E51E"></rect> <rect x="942.855" y="0.00012207" width="94.2857" height="370" rx="47.1429" fill="#E6E51E"></rect> <rect x="1037.14" y="0.00012207" width="94.2857" height="370" rx="47.1429" fill="#E6E51E"></rect> <rect x="1131.43" y="0.00012207" width="94.2857" height="370" rx="47.1429" fill="#E6E51E"></rect> <rect x="1225.71" y="0.00012207" width="94.2857" height="370" rx="47.1429" fill="#E6E51E"></rect> </svg> 