<?xml version="1.0" encoding="UTF-8"?> <svg xmlns="http://www.w3.org/2000/svg" width="178" height="123" viewBox="0 0 178 123" fill="none"> <path fill-rule="evenodd" clip-rule="evenodd" d="M89.3466 80.2063C109.356 80.2638 128.069 72.9474 135.659 59.4642C136.689 57.6338 139.009 56.9853 140.839 58.0157C142.67 59.0462 143.318 61.3654 142.288 63.1958C132.721 80.1888 110.523 87.8739 89.3247 87.813C68.1038 87.752 45.7236 79.9347 35.5586 63.3144C34.4627 61.5224 35.0269 59.1813 36.8189 58.0853C38.6108 56.9894 40.952 57.5536 42.0479 59.3456C50.2326 72.7281 69.359 80.1489 89.3466 80.2063Z" fill="black" stroke="#E6E51E" stroke-width="68.67" stroke-linecap="round"></path> <path d="M138.949 61.3299C121.792 91.8061 57.1288 91.3327 38.7792 61.3299" stroke="black" stroke-width="7.60673" stroke-linecap="round"></path> <path d="M131.413 57.55L142.224 53.3324L146.137 62.9515" stroke="black" stroke-width="7.60673" stroke-linecap="round" stroke-linejoin="round"></path> <path d="M54.5312 11.56C63.9813 0.878879 73.7463 2.09958 82.2513 11.56" stroke="black" stroke-width="7.64398" stroke-linecap="round"></path> <path d="M96.1094 11.56C105.559 0.878884 115.324 2.09959 123.829 11.56" stroke="black" stroke-width="7.64398" stroke-linecap="round"></path> </svg> 