<?xml version="1.0" encoding="UTF-8"?> <svg xmlns="http://www.w3.org/2000/svg" width="96" height="26" viewBox="0 0 96 26" fill="none"> <g clip-path="url(#clip0_6626_82880)"> <path d="M43.7217 13.3868C43.7217 12.3014 43.9206 11.3485 44.3182 10.5282C44.7282 9.70784 45.2813 9.07677 45.9771 8.6351C46.673 8.19334 47.4497 7.97247 48.3071 7.97247C49.0403 7.97247 49.6803 8.12392 50.227 8.42686C50.7862 8.72976 51.215 9.12731 51.5132 9.61952V8.12392H54.7006V18.6876H51.5132V17.192C51.2026 17.6842 50.7676 18.0818 50.2084 18.3847C49.6617 18.6876 49.0217 18.839 48.2885 18.839C47.4435 18.839 46.673 18.6181 45.9771 18.1764C45.2813 17.7221 44.7282 17.0847 44.3182 16.2644C43.9206 15.4314 43.7217 14.4722 43.7217 13.3868ZM51.5132 13.4058C51.5132 12.598 51.2895 11.9607 50.8422 11.4937C50.4073 11.0267 49.8729 10.7933 49.2391 10.7933C48.6054 10.7933 48.0648 11.0267 47.6174 11.4937C47.1826 11.9481 46.965 12.5791 46.965 13.3868C46.965 14.1946 47.1826 14.8382 47.6174 15.3178C48.0648 15.7848 48.6054 16.0183 49.2391 16.0183C49.8729 16.0183 50.4073 15.7848 50.8422 15.3178C51.2895 14.8508 51.5132 14.2135 51.5132 13.4058Z" fill="white"></path> <path d="M55.6274 13.3868C55.6274 12.3014 55.8262 11.3485 56.2239 10.5282C56.634 9.70784 57.187 9.07677 57.8829 8.6351C58.5788 8.19334 59.3554 7.97247 60.2129 7.97247C60.9461 7.97247 61.586 8.12392 62.1328 8.42686C62.692 8.72976 63.1207 9.12731 63.419 9.61952V8.12392H66.6064V18.6876H63.419V17.192C63.1083 17.6842 62.6734 18.0818 62.1142 18.3847C61.5674 18.6876 60.9274 18.839 60.1942 18.839C59.3492 18.839 58.5788 18.6181 57.8829 18.1764C57.187 17.7221 56.634 17.0847 56.2239 16.2644C55.8262 15.4314 55.6274 14.4722 55.6274 13.3868ZM63.419 13.4058C63.419 12.598 63.1953 11.9607 62.7479 11.4937C62.313 11.0267 61.7786 10.7933 61.1449 10.7933C60.5111 10.7933 59.9706 11.0267 59.5232 11.4937C59.0882 11.9481 58.8708 12.5791 58.8708 13.3868C58.8708 14.1946 59.0882 14.8382 59.5232 15.3178C59.9706 15.7848 60.5111 16.0183 61.1449 16.0183C61.7786 16.0183 62.313 15.7848 62.7479 15.3178C63.1953 14.8508 63.419 14.2135 63.419 13.4058Z" fill="white"></path> <path d="M71.3544 9.61952C71.6651 9.12731 72.0938 8.72976 72.6406 8.42686C73.1873 8.12392 73.8273 7.97247 74.5605 7.97247C75.418 7.97247 76.1946 8.19334 76.8905 8.6351C77.5863 9.07677 78.1331 9.70784 78.5308 10.5282C78.9409 11.3485 79.1459 12.3014 79.1459 13.3868C79.1459 14.4722 78.9409 15.4314 78.5308 16.2644C78.1331 17.0847 77.5863 17.7221 76.8905 18.1764C76.1946 18.6181 75.418 18.839 74.5605 18.839C73.8397 18.839 73.1998 18.6876 72.6406 18.3847C72.0938 18.0818 71.6651 17.6905 71.3544 17.211V23.7233H68.167V8.12392H71.3544V9.61952ZM75.9026 13.3868C75.9026 12.5791 75.6789 11.9481 75.2315 11.4937C74.7966 11.0267 74.256 10.7933 73.6099 10.7933C72.9761 10.7933 72.4355 11.0267 71.9882 11.4937C71.5532 11.9607 71.3358 12.598 71.3358 13.4058C71.3358 14.2135 71.5532 14.8508 71.9882 15.3178C72.4355 15.7848 72.9761 16.0183 73.6099 16.0183C74.2436 16.0183 74.7842 15.7848 75.2315 15.3178C75.6789 14.8382 75.9026 14.1946 75.9026 13.3868Z" fill="white"></path> <path d="M83.2598 4.67841V18.6876H80.0718V4.67841H83.2598Z" fill="white"></path> <path d="M95.6351 8.1239L89.1111 23.7044H85.6815L88.0671 18.3279L83.8359 8.1239H87.3967L89.8007 14.7309L92.1871 8.1239H95.6351Z" fill="white"></path> <path fill-rule="evenodd" clip-rule="evenodd" d="M10.051 3.47945C14.4971 -0.839836 21.503 -0.83982 25.949 3.47945L33.2828 10.6039C36.7949 14.0158 36.9186 19.6734 33.5593 23.2403C30.1998 26.8073 24.6294 26.933 21.1173 23.5211L18 20.4928L14.8828 23.5211C11.3706 26.933 5.80018 26.8073 2.44077 23.2403C-0.918649 19.6734 -0.794863 14.0158 2.71725 10.6039L10.051 3.47945Z" fill="#E6E51E"></path> <path fill-rule="evenodd" clip-rule="evenodd" d="M15.3931 9.13184C16.853 7.71981 19.1471 7.71981 20.6069 9.13184L27.1448 15.4558C27.5767 15.8736 27.5935 16.5678 27.1821 17.0065C26.7707 17.4452 26.0871 17.4622 25.6552 17.0444L19.1173 10.7204C18.4916 10.1153 17.5084 10.1153 16.8828 10.7204L10.3448 17.0444C9.91289 17.4622 9.22929 17.4452 8.81793 17.0065C8.40657 16.5678 8.42329 15.8736 8.85521 15.4558L15.3931 9.13184Z" fill="black"></path> <path fill-rule="evenodd" clip-rule="evenodd" d="M27.7199 13.2031C28.3164 13.2031 28.7999 13.6942 28.7999 14.3V17.55C28.7999 18.1558 28.3164 18.6469 27.7199 18.6469H24.5199C23.9235 18.6469 23.4399 18.1558 23.4399 17.55C23.4399 16.9442 23.9235 16.4531 24.5199 16.4531H26.6399V14.3C26.6399 13.6942 27.1235 13.2031 27.7199 13.2031Z" fill="black"></path> </g> <defs> <clipPath id="clip0_6626_82880"> <rect width="96" height="26" fill="white"></rect> </clipPath> </defs> </svg> 